<?xml version="1.0" encoding="UTF-8"?>
<svg version="1.1" xmlns="http://www.w3.org/2000/svg" width="238" height="212">
<path d="M0 0 C78.54 0 157.08 0 238 0 C238 69.96 238 139.92 238 212 C159.46 212 80.92 212 0 212 C0 142.04 0 72.08 0 0 Z " fill="#FDFCFC" transform="translate(0,0)"/>
<path d="M0 0 C3.76474683 1.25491561 3.96498084 2.29795822 5.875 5.6875 C9.03119652 10.80620334 12.5985673 15.28531997 16.625 19.75 C17.17526855 20.38252686 17.72553711 21.01505371 18.29248047 21.66674805 C19.79248573 23.29028581 21.19397053 24.72538156 23 26 C25.53940952 26.02475719 25.53940952 26.02475719 28 25 C30.20623012 24.88514783 32.41581889 24.82519644 34.625 24.8125 C35.75164063 24.79832031 36.87828125 24.78414062 38.0390625 24.76953125 C41 25 41 25 44 27 C43.731875 28.03125 43.46375 29.0625 43.1875 30.125 C42.58431237 34.09111468 42.58431237 34.09111468 45.1875 36.9375 C45.64898437 37.42089844 46.11046875 37.90429688 46.5859375 38.40234375 C49.96523272 42.22038724 51.88863758 46.44092616 52.25 51.5 C52.1675 52.325 52.085 53.15 52 54 C53.32 54.66 54.64 55.32 56 56 C60.455 59.96 60.455 59.96 65 64 C65.33 49.15 65.66 34.3 66 19 C71 18 71 18 74 19 C75.8754948 24.6264844 75.69489235 30.73095597 76.0625 36.625 C76.10735535 37.32408478 76.15221069 38.02316956 76.19842529 38.74343872 C76.86278989 49.17138107 77.27953073 59.54865646 77 70 C77.99737183 69.99214478 77.99737183 69.99214478 79.01489258 69.98413086 C99.36414168 69.84783661 119.66395895 70.32571857 140 71 C139.98404785 70.41621582 139.9680957 69.83243164 139.95166016 69.23095703 C139.83058283 60.86404172 140.45781586 52.59988572 141.171875 44.27148438 C141.37747657 41.84578119 141.56782486 39.41915779 141.7578125 36.9921875 C141.88709894 35.45044325 142.01727354 33.90877316 142.1484375 32.3671875 C142.20373627 31.64127411 142.25903503 30.91536072 142.31600952 30.16744995 C142.47187965 28.43694834 142.7264753 26.71584252 143 25 C143.99 24.505 143.99 24.505 145 24 C150.62877836 35.25755672 147.05171535 59.36404656 147 71 C159.54 71 172.08 71 185 71 C178.40655943 63.79909634 178.40655943 63.79909634 174.125 63.8125 C172.29037208 64.50965861 170.46229846 65.22545888 168.65234375 65.984375 C167.79769531 66.34015625 166.94304687 66.6959375 166.0625 67.0625 C165.21042969 67.41957031 164.35835937 67.77664062 163.48046875 68.14453125 C160.11524274 69.30513675 157.5219565 69.30625709 154 69 C154 68.34 154 67.68 154 67 C156.73822319 65.01779722 159.52948468 63.18092608 162.37890625 61.36523438 C163.96895589 60.31510269 165.49063585 59.16312265 167 58 C167 54.12427194 165.82001262 53.32507922 163.3125 50.4375 C158.61049454 44.71658749 154.33764119 38.9166378 153.6875 31.375 C153.8421875 30.199375 153.8421875 30.199375 154 29 C156.31 28.67 158.62 28.34 161 28 C166.25670044 34.82340331 171.12931602 41.89962513 176 49 C179.48241269 47.0335327 182.33806395 44.9214844 185.25 42.1875 C194.03252528 34.27003147 194.03252528 34.27003147 199 32 C201.13671875 32.16015625 201.13671875 32.16015625 203 33 C205 36 205 36 204.90234375 38.4140625 C202.05554628 46.57241715 190.92902235 52.41505117 184 57 C185.27729975 60.55287745 186.76875035 63.24503365 189.125 66.1875 C192 69.784689 192 69.784689 192 72 C192.70640625 71.96519531 193.4128125 71.93039063 194.140625 71.89453125 C201.47103341 71.70114108 208.44071997 72.30933535 215.6875 73.375 C217.01539551 73.56412964 217.01539551 73.56412964 218.37011719 73.75708008 C219.2005957 73.88622803 220.03107422 74.01537598 220.88671875 74.1484375 C221.63139404 74.26364746 222.37606934 74.37885742 223.14331055 74.49755859 C225 75 225 75 227 77 C226.14470703 77.02505615 225.28941406 77.0501123 224.40820312 77.07592773 C221.15015906 77.17264269 217.89220382 77.2717427 214.63427734 77.37231445 C213.24009925 77.41489573 211.84589404 77.45660083 210.45166016 77.49731445 C202.97576618 77.71623976 195.52501609 78.01158517 188.0625 78.53125 C179.53514105 79.0916821 171.04246919 79.11288403 162.5 79.0625 C160.98307443 79.05746416 159.4661472 79.05290501 157.94921875 79.04882812 C154.2994436 79.03801236 150.64973321 79.02086846 147 79 C147.06058594 80.25546631 147.12117187 81.51093262 147.18359375 82.80444336 C147.40939033 87.4952594 147.63235299 92.18620672 147.85449219 96.87719727 C147.95073299 98.9013223 148.04772598 100.92541172 148.14550781 102.94946289 C148.28652074 105.87116434 148.42476188 108.7929863 148.5625 111.71484375 C148.60624756 112.60896469 148.64999512 113.50308563 148.69506836 114.42430115 C148.95257803 119.95638731 149.03926024 125.46185223 149 131 C149.63236572 130.98428955 150.26473145 130.9685791 150.91625977 130.95239258 C168.31762169 130.58957717 185.57181582 131.28399797 202.9375 132.375 C204.50819748 132.46982162 204.50819748 132.46982162 206.11062622 132.56655884 C209.12524634 132.75087075 212.13880041 132.94735607 215.15234375 133.1484375 C216.05753754 133.20375137 216.96273132 133.25906525 217.89535522 133.3160553 C222.57019397 133.64630751 226.5960338 134.25139952 231 136 C230.34 138.31 229.68 140.62 229 143 C222.03386247 143.02586089 215.06773777 143.04307472 208.1015625 143.05493164 C205.74348488 143.05988693 203.38541021 143.06665307 201.02734375 143.07543945 C184.98868996 143.1336001 169.0188672 142.80989143 153 142 C157.62 146.29 162.24 150.58 167 155 C169.58621687 153.96551325 172.17194373 152.92965938 174.75 151.875 C180.40032057 150.35375985 185.13451478 150.21453254 190.5625 152.5 C191.7690625 153.2425 191.7690625 153.2425 193 154 C192.814375 154.86625 192.62875 155.7325 192.4375 156.625 C192.62446608 160.03471691 192.62446608 160.03471691 194.86328125 161.5234375 C196.48343952 162.52576127 198.10592178 163.52433634 199.73046875 164.51953125 C202.98855413 166.64485717 204.44719681 168.42180134 206 172 C206.73210959 178.36079628 206.04552298 182.86343107 204 189 C207.3 192.3 210.6 195.6 214 199 C213.67 199.66 213.34 200.32 213 201 C211.78763672 199.99066406 211.78763672 199.99066406 210.55078125 198.9609375 C209.47211594 198.09800525 208.3926462 197.23607786 207.3125 196.375 C206.51682617 195.70597656 206.51682617 195.70597656 205.70507812 195.0234375 C203.93672761 193.57158919 203.93672761 193.57158919 201 192 C198.30800399 192.47469099 198.30800399 192.47469099 196 194 C195.30519531 194.33 194.61039063 194.66 193.89453125 195 C193.20746094 195.33 192.52039063 195.66 191.8125 196 C186.96563203 198.15416354 182.2486179 199.30569464 177 200 C176.21238281 200.10828125 175.42476562 200.2165625 174.61328125 200.328125 C170.1905601 200.65851503 167.58542777 200.15549258 164.0625 197.375 C160.00624507 193.75026155 159.12184796 189.52705562 158.69921875 184.23046875 C158.68071637 182.88293386 158.67723606 181.53512283 158.6875 180.1875 C158.68943359 179.13236206 158.68943359 179.13236206 158.69140625 178.0559082 C158.79493338 172.44150228 159.90171951 168.15827287 162 163 C162 162.01 162 161.02 162 160 C159.77838385 157.8571648 159.77838385 157.8571648 157 155.8125 C155.6078125 154.73935547 155.6078125 154.73935547 154.1875 153.64453125 C153.465625 153.10183594 152.74375 152.55914062 152 152 C151.89492561 157.40345064 152.22830248 162.39911615 153.09375 167.75390625 C153.20473022 168.45845444 153.31571045 169.16300262 153.43005371 169.88890076 C153.78090766 172.11440312 154.13954006 174.33853478 154.5 176.5625 C154.86018255 178.79007198 155.21838804 181.01786057 155.56994629 183.24681091 C155.8884962 185.26635088 156.2145358 187.28470533 156.54101562 189.30297852 C156.98911197 192.91229923 157.08212592 196.36739448 157 200 C154.69 200.33 152.38 200.66 150 201 C147.17016313 193.71444992 144.96988292 186.52414241 143.375 178.875 C143.06949219 177.54662109 143.06949219 177.54662109 142.7578125 176.19140625 C140.28306891 164.46810169 139.97357716 153.16971455 139 141 C118.87 139.68 98.74 138.36 78 137 C78 145.25 78 153.5 78 162 C77.67 165.96 77.34 169.92 77 174 C76.87145184 176.57707733 76.76277561 179.15530881 76.68359375 181.734375 C76.64169922 183.04921875 76.59980469 184.3640625 76.55664062 185.71875 C76.51685861 187.06249797 76.47714586 188.406248 76.4375 189.75 C76.39416442 191.14063389 76.35054622 192.53125899 76.30664062 193.921875 C76.20166251 197.28117477 76.09950417 200.64053439 76 204 C75.34 203.67 74.68 203.34 74 203 C73.40234375 200.62890625 73.40234375 200.62890625 72.9375 197.5625 C72.78152344 196.57378906 72.62554687 195.58507812 72.46484375 194.56640625 C71.41407323 186.50461226 70.83273141 178.52646232 70.68359375 170.3984375 C70.66281265 169.435961 70.64203156 168.4734845 70.62062073 167.48184204 C70.55591207 164.44629149 70.49661125 161.41066417 70.4375 158.375 C70.3942397 156.30077372 70.35062319 154.22655484 70.30664062 152.15234375 C70.20031297 147.10163858 70.09883079 142.0508572 70 137 C65.73623661 136.61007644 61.47240457 136.22091296 57.20852661 135.83224487 C54.93836892 135.62507929 52.66828081 135.4171622 50.39819336 135.20922852 C43.6137313 134.58941346 36.82951443 133.97709123 30.0390625 133.42578125 C29.0169165 133.34183105 27.99477051 133.25788086 26.94165039 133.17138672 C25.08966854 133.02094166 23.23730736 132.8750595 21.38452148 132.73486328 C15.48088496 132.25193661 9.78332534 131.27585809 4 130 C7.50642707 127.66238196 8.8885595 127.7561402 13.03198242 127.77294922 C14.27304245 127.77310028 15.51410248 127.77325134 16.79277039 127.77340698 C18.1470048 127.7836202 19.50123758 127.79405219 20.85546875 127.8046875 C22.24123429 127.80841833 23.62700248 127.81126497 25.01277161 127.81326294 C28.6575348 127.82089392 32.30213824 127.8405377 35.94683838 127.8626709 C39.6670105 127.88314091 43.38720923 127.89237672 47.10742188 127.90234375 C54.40508895 127.9227226 61.70231749 127.96186987 69 128 C68.01 104.735 68.01 104.735 67 81 C61.05806641 80.90912109 61.05806641 80.90912109 54.99609375 80.81640625 C51.15029094 80.7545594 47.3045159 80.6911955 43.45874023 80.62768555 C40.79046812 80.58393674 38.12219145 80.54275062 35.45385742 80.50268555 C31.61369 80.44475045 27.77365214 80.38112308 23.93359375 80.31640625 C22.74479111 80.29969376 21.55598846 80.28298126 20.3311615 80.26576233 C14.79807909 80.1672836 9.45204703 79.97271442 4 79 C4 76.69 4 74.38 4 72 C14.54733561 69.72994876 25.01475306 69.56784875 35.75 69.375 C37.52605889 69.33672846 39.30210104 69.29767176 41.078125 69.2578125 C45.38527737 69.16283122 49.69251604 69.07844544 54 69 C52.58448853 67.75730347 52.58448853 67.75730347 51.14038086 66.48950195 C50.34415565 65.79048515 50.34415565 65.79048515 49.53184509 65.0773468 C48.00419918 63.76076934 48.00419918 63.76076934 45.75390625 64.16796875 C45.03074219 64.50441406 44.30757812 64.84085937 43.5625 65.1875 C36.90830587 67.65126839 30.01110453 67.98934475 23 67 C18.123602 64.28512593 14.71998831 61.41261859 13 56 C12.02015991 48.19430762 13.28059767 41.31648722 16 34 C15.45472656 33.51273438 14.90945312 33.02546875 14.34765625 32.5234375 C9.54200526 28.00530409 5.61637591 23.33944793 2.0625 17.8125 C1.49704468 16.94020752 1.49704468 16.94020752 0.92016602 16.05029297 C-4.39918748 7.52818737 -4.39918748 7.52818737 -3.625 2.625 C-3.41875 2.08875 -3.2125 1.5525 -3 1 C-2.01 1.33 -1.02 1.66 0 2 C0 1.34 0 0.68 0 0 Z " fill="#990404" transform="translate(6,2)"/>
<path d="M0 0 C5.33473804 1.72594466 9.42369851 4.31301224 12.26953125 9.1640625 C15.37326103 16.07342562 16.64187122 23.48485415 14 30.75 C6.4839343 39.20557391 -1.90831909 44.63521094 -13.3125 46.0625 C-17.23450379 46.24008103 -18.85954389 46.06521177 -22.5 44.375 C-27.76024414 39.37776807 -30.12365332 35.73205779 -30.4375 28.4375 C-30.3631725 20.75389517 -27.43007519 15.7894164 -22.359375 10.1875 C-15.98091489 4.22632233 -8.5873176 1.62453219 0 1 C0 0.67 0 0.34 0 0 Z " fill="#990505" transform="translate(115,152)"/>
<path d="M0 0 C1.125 3.75 1.125 3.75 0 6 C0.66 6 1.32 6 2 6 C2.59219606 12.21805862 0.41785897 15.02987241 -3.40234375 19.72265625 C-8.86464072 25.79929469 -15.95598133 30.09350114 -24.04296875 31.546875 C-28.65474711 31.77092901 -31.2326447 31.48147783 -35.1875 29 C-37.51702507 25.14423436 -38.03677425 22.31237985 -37 18 C-33.33201535 9.20235262 -26.9139242 3.2426544 -18.4375 -0.9375 C-11.82044326 -2.98277208 -6.47464045 -2.15821348 0 0 Z " fill="#990505" transform="translate(57,90)"/>
<path d="M0 0 C2 3 2 3 2.02734375 5.4375 C0.55655968 9.10607166 -2.08251124 10.26884325 -5.4375 12 C-6.37843506 12.51046875 -6.37843506 12.51046875 -7.33837891 13.03125 C-9.21542994 14.04178576 -11.1040366 15.02548189 -13 16 C-14.04027344 16.53625 -15.08054688 17.0725 -16.15234375 17.625 C-18.42486715 18.77267322 -20.7042374 19.89972668 -23 21 C-22.31164062 21.63615234 -22.31164062 21.63615234 -21.609375 22.28515625 C-17.48010077 26.23225662 -14.44449494 29.81767074 -12 35 C-12 36.32 -12 37.64 -12 39 C-15.53312342 38.39523113 -17.5088757 37.01783665 -20.25 34.75 C-23.19378192 32.40659465 -26.12918175 30.10418806 -29.25 28 C-29.85328125 27.5875 -30.4565625 27.175 -31.078125 26.75 C-33.83988899 25.67223844 -35.16453978 26.10417054 -38 27 C-40.74157431 28.23243074 -43.40088939 29.60454512 -46.0625 31 C-47.46810482 31.73291336 -48.87560324 32.46220888 -50.28515625 33.1875 C-51.21146851 33.67283203 -51.21146851 33.67283203 -52.15649414 34.16796875 C-54.08229536 35.03714244 -55.93957493 35.54927312 -58 36 C-55.35605235 28.24352091 -48.8638537 23.11831222 -42 19 C-42.3609375 18.33613281 -42.721875 17.67226562 -43.09375 16.98828125 C-43.5578125 16.10527344 -44.021875 15.22226563 -44.5 14.3125 C-44.9640625 13.44238281 -45.428125 12.57226562 -45.90625 11.67578125 C-47.0552674 8.86479224 -47.29455566 7.00341575 -47 4 C-46 3 -46 3 -42.875 2.375 C-38.29351419 3.11394932 -37.79677895 3.94710801 -35.0625 7.5 C-34.01984946 8.98491769 -32.9917999 10.48064696 -32 12 C-28.43892047 10.62547071 -25.033464 9.07233037 -21.62109375 7.36328125 C-20.61755859 6.86892578 -19.61402344 6.37457031 -18.58007812 5.86523438 C-16.47721758 4.82622 -14.37825911 3.77927224 -12.28320312 2.72460938 C-11.28095703 2.23412109 -10.27871094 1.74363281 -9.24609375 1.23828125 C-8.33529053 0.78493408 -7.4244873 0.33158691 -6.48608398 -0.13549805 C-3.74028455 -1.09031252 -2.62446675 -1.20830292 0 0 Z " fill="#990505" transform="translate(220,87)"/>
<path d="M0 0 C5.10880829 -0.79274611 5.10880829 -0.79274611 8 0 C10.53166875 2.71704199 12.28204023 5.72025861 14 9 C18.62326247 8.3561414 22.51087652 6.46756154 26.6875 4.5 C32.65061149 1.7808703 38.29721133 -0.48637015 45 0 C46 1 46 1 46.0625 4.5625 C46.041875 5.696875 46.02125 6.83125 46 8 C29 17 29 17 23 17 C24.0209375 17.99 24.0209375 17.99 25.0625 19 C27.35095368 21.30156803 29.57005503 23.65781844 31.75 26.0625 C32.34296875 26.71347656 32.9359375 27.36445313 33.546875 28.03515625 C35.04761633 30.06438445 35.5825608 31.53381312 36 34 C31.6024639 33.39174267 28.31214643 31.7531372 24.4375 29.625 C22.76494141 28.71621094 22.76494141 28.71621094 21.05859375 27.7890625 C18 26 18 26 15.97265625 24.1484375 C13.97265102 22.69502028 13.97265102 22.69502028 11.265625 23.5234375 C7.27519357 25.32772348 3.52568667 27.41214334 -0.25 29.625 C-7.73849693 34 -7.73849693 34 -10 34 C-8.02947175 26.99367734 -1.86827964 21.02396318 4 17 C4.66 17 5.32 17 6 17 C5.47599609 16.29423828 5.47599609 16.29423828 4.94140625 15.57421875 C4.48636719 14.95160156 4.03132813 14.32898438 3.5625 13.6875 C3.11003906 13.07261719 2.65757813 12.45773438 2.19140625 11.82421875 C-0.32771055 7.96707925 -0.0843795 4.47211376 0 0 Z " fill="#990404" transform="translate(26,148)"/>
<path d="M0 0 C2.03515625 1.9609375 2.03515625 1.9609375 4.0625 4.375 C6.30087382 7.01292999 8.51025024 9.59556876 11 12 C12.32064453 11.16855469 12.32064453 11.16855469 13.66796875 10.3203125 C14.84101486 9.58833173 16.0141993 8.85657261 17.1875 8.125 C17.76564453 7.76019531 18.34378906 7.39539062 18.93945312 7.01953125 C23.76991824 4.01754728 27.26636733 2 33 2 C34.8125 3.75 34.8125 3.75 36 6 C36 8 36 8 35 10 C30.86560447 14.13439553 25.36721156 16.78033962 20 19 C19.01 19 18.02 19 17 19 C17.62648438 19.74765625 18.25296875 20.4953125 18.8984375 21.265625 C19.71570313 22.25046875 20.53296875 23.2353125 21.375 24.25 C22.18710938 25.22453125 22.99921875 26.1990625 23.8359375 27.203125 C25.57851757 29.4552682 26.876416 31.40711386 28 34 C21.61937568 33.85820835 17.73757806 31.17388698 12.55078125 27.59375 C10.20820475 26.13008811 8.73213895 25.22721642 6 25 C3.88246331 25.73436278 3.88246331 25.73436278 1.875 26.9375 C-1.83050847 29 -1.83050847 29 -4 29 C-3.46884894 24.48521602 -1.63379708 21.65333143 1 18 C0.29423828 17.22076172 0.29423828 17.22076172 -0.42578125 16.42578125 C-9.05044136 6.76544767 -9.05044136 6.76544767 -8.9375 2.8125 C-8 1 -8 1 -6.1875 -0.3125 C-3.53002246 -1.14770723 -2.58730884 -0.9976892 0 0 Z " fill="#990606" transform="translate(95,33)"/>
<path d="M0 0 C3.21849592 1.93109755 6.07531045 3.72524146 9 6 C8.67 7.010625 8.34 8.02125 8 9.0625 C6.54435816 14.26720499 6.53487724 18.47543096 8.125 23.6875 C10.34352684 27.60689742 11.93283204 29.08152455 16 31 C21.19299272 31.60584915 24.06147772 30.98548425 28.8125 28.9375 C31.33203125 28.08203125 31.33203125 28.08203125 34 28 C39.31160167 30.99681806 43.62023486 34.93035229 47 40 C23.735 39.505 23.735 39.505 0 39 C0 26.13 0 13.26 0 0 Z " fill="#F9F4F4" transform="translate(84,92)"/>
<path d="M0 0 C5.28 0 10.56 0 16 0 C16 16.5 16 33 16 50 C7.62745098 42.82352941 7.62745098 42.82352941 3.6875 39.3125 C2.84574219 38.56613281 2.00398437 37.81976563 1.13671875 37.05078125 C-1 35 -1 35 -3 32 C-2.52949219 31.62488281 -2.05898437 31.24976562 -1.57421875 30.86328125 C4.55584972 25.92630024 4.55584972 25.92630024 7.3828125 18.78125 C7.89580817 11.55470224 5.32724884 7.56189325 1 2 C0.67 1.34 0.34 0.68 0 0 Z " fill="#FBF8F8" transform="translate(129,82)"/>
<path d="M0 0 C1.7890625 1.10546875 1.7890625 1.10546875 2.7890625 3.10546875 C3.02734375 5.09375 3.02734375 5.09375 3.1015625 7.41796875 C3.13894531 8.17722656 3.17632812 8.93648437 3.21484375 9.71875 C2.60849474 13.11764218 1.19322599 14.65369807 -1.2109375 17.10546875 C-8.1496687 21.38760407 -15.03088414 24.4248322 -23.2109375 23.10546875 C-25.2734375 21.54296875 -25.2734375 21.54296875 -26.2109375 19.10546875 C-26.75772333 14.88740662 -26.52314879 12.69520119 -24.5234375 8.91796875 C-18.44216067 1.52182125 -9.61949935 -3.89198825 0 0 Z " fill="#FCF9F9" transform="translate(121.2109375,164.89453125)"/>
<path d="M0 0 C7.31356061 5.30591652 14.1430354 11.12558825 21 17 C17.19367518 21.23569683 12.56037062 21.79986321 7.1015625 22.2265625 C1.48313854 22.38877422 1.48313854 22.38877422 -1 22 C-4.24303336 17.13544996 -3.48145097 11.69368099 -3 6 C-2.25339036 3.58322891 -1.43894811 2.09846599 0 0 Z " fill="#FCF9F9" transform="translate(178,170)"/>
<path d="M0 0 C2.91397635 3.57624371 5.05589645 6.76414214 4.9375 11.5 C3.31873481 15.81670718 0.10743436 18.16942423 -3.5 20.875 C-6.61999577 22.2789981 -7.76734024 22.01956832 -11 21 C-13.23828125 19.15234375 -13.23828125 19.15234375 -15.3125 16.9375 C-16.00988281 16.20402344 -16.70726563 15.47054687 -17.42578125 14.71484375 C-17.94527344 14.14894531 -18.46476562 13.58304688 -19 13 C-14.29931418 7.67453948 -6.77446344 6.7206876 0 6 C0 4.02 0 2.04 0 0 Z " fill="#FAF5F5" transform="translate(127,86)"/>
<path d="M0 0 C5.83469558 1.41324807 10.05950963 6.17738601 13.8828125 10.546875 C15.60986815 14.31499642 15.21118639 16.57448377 14.2578125 20.546875 C12.5859375 21.359375 12.5859375 21.359375 10.2578125 21.546875 C8.29102213 19.93435122 6.70344169 18.41144251 5.0078125 16.546875 C4.03982439 15.52798308 3.06975842 14.51106129 2.09765625 13.49609375 C1.62054199 12.99384277 1.14342773 12.4915918 0.65185547 11.97412109 C-2.29236904 8.95977145 -5.51766924 6.25399205 -8.7421875 3.546875 C-6.09872084 0.51418625 -4.11180255 -0.15172703 0 0 Z " fill="#FAF6F6" transform="translate(190.7421875,162.453125)"/>
<path d="M0 0 C-2.51735369 6.23865915 -8.92686529 9.49845412 -14.7421875 12.33984375 C-18.80659059 14.03435008 -21.53391301 15 -26 15 C-25.35350506 9.70056257 -23.24763255 7.85338228 -19.2421875 4.58203125 C-13.09741214 0.24643191 -7.39474433 -0.46217152 0 0 Z " fill="#F9F3F3" transform="translate(56,98)"/>
<path d="M0 0 C11.88 0 23.76 0 36 0 C36.495 1.485 36.495 1.485 37 3 C36.09378906 2.95359375 35.18757813 2.9071875 34.25390625 2.859375 C24.80300446 2.57934828 18.80644748 3.79570168 11 9 C7.65521481 8.67221105 5.73779841 7.2366657 3.25 5.0625 C2.63640625 4.53785156 2.0228125 4.01320313 1.390625 3.47265625 C0 2 0 2 0 0 Z " fill="#FCF9F9" transform="translate(90,82)"/>
<path d="M0 0 C2.23828125 1.59375 2.23828125 1.59375 4.3125 3.5 C5.00988281 4.1290625 5.70726562 4.758125 6.42578125 5.40625 C8 7 8 7 8 8 C-1.24 8 -10.48 8 -20 8 C-17.01307857 4.0174381 -16.30181473 3.38725274 -11.9375 1.8125 C-11.05964844 1.48894531 -10.18179688 1.16539063 -9.27734375 0.83203125 C-8.52582031 0.55746094 -7.77429688 0.28289062 -7 0 C-4.24264639 -1.37867681 -2.92753104 -0.86485407 0 0 Z " fill="#F7F0F0" transform="translate(184,66)"/>
<path d="M0 0 C3.87321093 1.57630677 6.24735163 4.07747669 9.125 7.0625 C12.24105765 10.46453483 12.24105765 10.46453483 16 13 C16 13.66 16 14.32 16 15 C13.73020335 15.10794277 11.45894804 15.18556176 9.1875 15.25 C7.92292969 15.29640625 6.65835938 15.3428125 5.35546875 15.390625 C2 15 2 15 0.06640625 13.23828125 C-1.99908455 8.90302034 -1.50589229 4.51767686 0 0 Z " fill="#F7F0F0" transform="translate(30,45)"/>
<path d="M0 0 C2.41799871 2.00110238 4.59313878 4.28063878 6.8125 6.5 C-0.1175 6.5 -7.0475 6.5 -14.1875 6.5 C-14.1875 6.17 -14.1875 5.84 -14.1875 5.5 C-17.1575 5.17 -20.1275 4.84 -23.1875 4.5 C-23.1875 4.17 -23.1875 3.84 -23.1875 3.5 C-22.341875 3.46261719 -21.49625 3.42523438 -20.625 3.38671875 C-12.93777298 2.99593533 -12.93777298 2.99593533 -5.625 0.8125 C-2.1875 -0.5 -2.1875 -0.5 0 0 Z " fill="#F2E5E5" transform="translate(54.1875,65.5)"/>
<path d="M0 0 C11.88 0 23.76 0 36 0 C36.495 1.485 36.495 1.485 37 3 C32.05 3 27.1 3 22 3 C22 2.34 22 1.68 22 1 C11.11 1.495 11.11 1.495 0 2 C0 1.34 0 0.68 0 0 Z " fill="#ECD9D9" transform="translate(90,82)"/>
<path d="M0 0 C2.1875 -0.5 2.1875 -0.5 5 0 C8.05138088 3.55008302 10.05106724 7.420368 11 12 C9.72390677 11.09066991 8.45434447 10.17217147 7.1875 9.25 C6.47980469 8.73953125 5.77210937 8.2290625 5.04296875 7.703125 C2.94979179 5.95814383 1.47376367 4.2873556 0 2 C0 1.34 0 0.68 0 0 Z " fill="#F2E5E5" transform="translate(39,36)"/>
<path d="M0 0 C1.31611677 0.95336021 2.62778961 1.91285774 3.9375 2.875 C4.66839844 3.40867187 5.39929688 3.94234375 6.15234375 4.4921875 C8 6 8 6 9 8 C2.9453125 8.1953125 2.9453125 8.1953125 1 8 C0.34 7.34 -0.32 6.68 -1 6 C-0.625 2.875 -0.625 2.875 0 0 Z " fill="#F3E8E8" transform="translate(101,106)"/>
<path d="M0 0 C0.33 0 0.66 0 1 0 C1 6.93 1 13.86 1 21 C0.34 20.67 -0.32 20.34 -1 20 C-1.4140625 17.93359375 -1.4140625 17.93359375 -1.625 15.4375 C-1.69976562 14.61121094 -1.77453125 13.78492188 -1.8515625 12.93359375 C-1.90054688 12.29550781 -1.94953125 11.65742188 -2 11 C-1.67 11 -1.34 11 -1 11 C-0.67 7.37 -0.34 3.74 0 0 Z " fill="#980D0D" transform="translate(81,185)"/>
<path d="M0 0 C0.66 0.66 1.32 1.32 2 2 C1.67028521 5.29714793 1.3773161 6.6226839 -1 9 C-1.09765625 2.84765625 -1.09765625 2.84765625 -1 1 C-0.67 0.67 -0.34 0.34 0 0 Z " fill="#A73737" transform="translate(150,26)"/>
</svg>
